Coordinates
version=1
nRows=31
nColumns=34
inDegrees=no

Units are S.I. units (second, meters, Newtons, ...)
If the header above contains a line with 'inDegrees', this indicates whether rotational values are in degrees (yes) or radians (no).

endheader
time	pelvis_tilt	pelvis_list	pelvis_rotation	pelvis_tx	pelvis_ty	pelvis_tz	hip_flexion_r	hip_adduction_r	hip_rotation_r	knee_angle_r	ankle_angle_r	subtalar_angle_r	mtp_angle_r	hip_flexion_l	hip_adduction_l	hip_rotation_l	knee_angle_l	ankle_angle_l	subtalar_angle_l	mtp_angle_l	lumbar_extension	lumbar_bending	lumbar_rotation	arm_flex_r	arm_add_r	arm_rot_r	elbow_flex_r	pro_sup_r	arm_flex_l	arm_add_l	arm_rot_l	elbow_flex_l	pro_sup_l
1.85	-0.029483	0.0301359	0.0741352	-0.267612	1.55682	-0.642931	0.225361	-0.151746	-0.329685	0.23414	-0.571568	0.111062	-0.0180727	0.119372	-0.0346776	-0.353677	0.13372	-0.373825	0.140616	-0.0180727	-0.194977	-0.00773012	0.00631187	5.70145	-0.852402	4.68909	1.14724	1.65446	-0.291716	-1.214	-1.25426	1.75863	1.54815
1.86	-0.0273569	0.0312127	0.0745435	-0.268786	1.55288	-0.644066	0.218746	-0.152886	-0.335484	0.225672	-0.575515	0.115356	-0.0180727	0.115448	-0.0311293	-0.36807	0.127697	-0.375556	0.144246	-0.0180727	-0.194947	-0.00531521	0.00745046	5.67894	-0.846219	4.67316	1.1508	1.65417	-0.315362	-1.21914	-1.28386	1.77018	1.53511
1.87	-0.0253103	0.0317622	0.0747998	-0.270003	1.54792	-0.645155	0.212442	-0.15334	-0.340555	0.217503	-0.579176	0.11929	-0.0180727	0.112474	-0.0286625	-0.382921	0.123839	-0.378566	0.145428	-0.0180727	-0.194954	-0.00247477	0.00921277	5.65569	-0.840604	4.65499	1.15312	1.65303	-0.340765	-1.22543	-1.31634	1.78264	1.52161
1.88	-0.023317	0.0318455	0.0748981	-0.271256	1.54194	-0.646185	0.2064	-0.15316	-0.344841	0.209598	-0.582511	0.122848	-0.0180727	0.110379	-0.0272534	-0.398138	0.122081	-0.383097	0.144283	-0.0180727	-0.195032	0.000675872	0.0115162	5.63185	-0.83536	4.635	1.15411	1.6507	-0.369021	-1.23273	-1.35261	1.79593	1.50757
1.89	-0.0213629	0.0315456	0.0748322	-0.272541	1.53494	-0.647151	0.200595	-0.152446	-0.348331	0.201954	-0.585511	0.126137	-0.0180727	0.109072	-0.0268213	-0.413498	0.122293	-0.389321	0.141207	-0.0180727	-0.195201	0.00401397	0.0142668	5.60746	-0.830287	4.61372	1.1538	1.64675	-0.401296	-1.24081	-1.39365	1.81003	1.4925
1.9	-0.0194553	0.0309601	0.0745898	-0.27385	1.52693	-0.648053	0.19505	-0.151331	-0.351028	0.19462	-0.588131	0.129345	-0.0180727	0.108459	-0.0272336	-0.428646	0.124283	-0.397245	0.136833	-0.0180727	-0.195461	0.00741938	0.017369	5.58248	-0.825191	4.59179	1.15233	1.64075	-0.438673	-1.24934	-1.44039	1.82497	1.47564
1.91	-0.0176242	0.0301944	0.0741516	-0.275179	1.51791	-0.648894	0.189844	-0.149969	-0.352929	0.187706	-0.590239	0.132668	-0.0180727	0.108446	-0.0283159	-0.443124	0.127815	-0.406666	0.131944	-0.0180727	-0.195786	0.0107837	0.0207228	5.5568	-0.819875	4.56992	1.14997	1.6325	-0.482009	-1.25789	-1.49354	1.8408	1.45623
1.92	-0.0159182	0.0293507	0.0734924	-0.276526	1.50789	-0.649683	0.185105	-0.148519	-0.354041	0.181375	-0.591633	0.136232	-0.0180727	0.108944	-0.0298688	-0.456411	0.132622	-0.417179	0.127375	-0.0180727	-0.196127	0.0140195	0.0242187	5.53028	-0.814147	4.54891	1.1471	1.62217	-0.531776	-1.2659	-1.55351	1.85762	1.43383
1.93	-0.0143961	0.0285186	0.0725849	-0.277888	1.49685	-0.650429	0.180984	-0.147126	-0.354405	0.175804	-0.592098	0.14004	-0.0180727	0.109871	-0.0316848	-0.467959	0.138419	-0.428236	0.123885	-0.0180727	-0.196422	0.0170663	0.0277358	5.50287	-0.807813	4.52961	1.1442	1.61038	-0.587907	-1.27271	-1.62017	1.87552	1.40863
1.94	-0.0131174	0.0277698	0.071407	-0.279262	1.48481	-0.651141	0.177626	-0.145916	-0.354126	0.171137	-0.591504	0.143952	-0.0180727	0.111151	-0.0335616	-0.477229	0.144912	-0.439262	0.122046	-0.0180727	-0.196604	0.01989	0.0311465	5.47457	-0.80066	4.51287	1.14185	1.59804	-0.649658	-1.27761	-1.69279	1.89458	1.38161
1.95	-0.0121329	0.0271596	0.0699506	-0.280646	1.47178	-0.651829	0.175137	-0.14499	-0.353382	0.167439	-0.589904	0.147711	-0.0180727	0.112709	-0.0353111	-0.483739	0.151798	-0.449772	0.122186	-0.0180727	-0.196619	0.0224763	0.0343208	5.44551	-0.792442	4.49955	1.14073	1.58628	-0.71555	-1.27986	-1.76993	1.91492	1.35443
1.96	-0.0114749	0.0267319	0.0682285	-0.282036	1.45774	-0.652502	0.17356	-0.144433	-0.352402	0.164664	-0.587613	0.151008	-0.0180727	0.114464	-0.0367664	-0.487115	0.158767	-0.459506	0.12437	-0.0180727	-0.196428	0.024819	0.0371265	5.41599	-0.782872	4.4904	1.14156	1.57621	-0.783447	-1.27877	-1.8495	1.93669	1.32915
1.97	-0.0111483	0.026523	0.0662788	-0.28343	1.44273	-0.653167	0.172854	-0.144313	-0.351423	0.162638	-0.585249	0.153564	-0.0180727	0.116327	-0.0377941	-0.487178	0.165505	-0.468528	0.128454	-0.0180727	-0.196033	0.0269111	0.0394257	5.3865	-0.771625	4.4861	1.14513	1.56867	-0.850752	-1.27369	-1.92897	1.96015	1.30751
1.98	-0.011123	0.0265641	0.0641648	-0.284822	1.42674	-0.653829	0.172885	-0.144684	-0.350632	0.16107	-0.583715	0.155204	-0.0180727	0.118194	-0.0383095	-0.484021	0.171718	-0.477265	0.134169	-0.0180727	-0.195478	0.0287413	0.0410778	5.35773	-0.75834	4.48721	1.15223	1.5641	-0.914656	-1.26407	-2.00555	1.98569	1.29055
1.99	-0.0113297	0.0268807	0.0619685	-0.286207	1.40981	-0.65449	0.17343	-0.145582	-0.35011	0.159593	-0.584109	0.155912	-0.0180727	0.119944	-0.038287	-0.478047	0.177158	-0.486451	0.141168	-0.0180727	-0.194856	0.0302945	0.0419535	5.33051	-0.742642	4.49409	1.16362	1.56254	-0.972397	-1.24951	-2.07648	2.01379	1.2784
2	-0.011664	0.0274911	0.0597772	-0.287584	1.39195	-0.655146	0.17421	-0.147027	-0.349786	0.157846	-0.587526	0.155853	-0.0180727	0.121451	-0.0377636	-0.46994	0.181669	-0.496978	0.149039	-0.0180727	-0.194311	0.0315559	0.0419625	5.30578	-0.724161	4.50694	1.17986	1.56372	-1.0215	-1.22974	-2.13922	2.04498	1.27037
2.01	-0.0119972	0.0284043	0.0576627	-0.288952	1.37319	-0.655794	0.174941	-0.149019	-0.349407	0.155605	-0.594763	0.155346	-0.0180727	0.122598	-0.0368372	-0.460571	0.185248	-0.509617	0.1573	-0.0180727	-0.194029	0.0325127	0.0410897	5.28446	-0.702569	4.52571	1.20127	1.56715	-1.05998	-1.2047	-2.19157	2.07977	1.26509
2.02	-0.0121921	0.0296191	0.0556576	-0.290316	1.35356	-0.656423	0.175408	-0.151539	-0.348515	0.152933	-0.605925	0.154769	-0.0180727	0.123315	-0.0356634	-0.450892	0.188138	-0.52464	0.165439	-0.0180727	-0.194225	0.0331555	0.0394285	5.26736	-0.677612	4.55018	1.22782	1.57227	-1.08644	-1.17446	-2.23174	2.11857	1.26086
2.03	-0.0121194	0.0311233	0.0537356	-0.291691	1.33308	-0.657014	0.175545	-0.154544	-0.346439	0.150348	-0.620007	0.15443	-0.0180727	0.12361	-0.034448	-0.441803	0.190922	-0.541389	0.172958	-0.0180727	-0.195138	0.0334742	0.0371922	5.25513	-0.649157	4.57997	1.25902	1.57848	-1.10016	-1.13929	-2.25838	2.16158	1.25604
2.04	-0.0116755	0.0328961	0.051805	-0.293103	1.31177	-0.657541	0.175506	-0.157962	-0.342328	0.148948	-0.634538	0.15444	-0.0180727	0.123622	-0.0334285	-0.434001	0.194624	-0.557872	0.179436	-0.0180727	-0.197019	0.0334508	0.0346944	5.24819	-0.617232	4.61462	1.29398	1.58527	-1.10113	-1.09952	-2.27055	2.20869	1.2496
2.05	-0.0108001	0.0349129	0.0497173	-0.294593	1.28964	-0.65797	0.175738	-0.161699	-0.335237	0.15049	-0.645413	0.154648	-0.0180727	0.123665	-0.0328469	-0.427831	0.200759	-0.570518	0.184576	-0.0180727	-0.200117	0.03305	0.0323016	5.24677	-0.582065	4.65367	1.33142	1.5923	-1.08999	-1.05558	-2.26767	2.25944	1.24166
2.06	-0.00949302	0.0371496	0.0472896	-0.296229	1.26667	-0.658264	0.177021	-0.165641	-0.324253	0.157357	-0.647042	0.154652	-0.0180727	0.124275	-0.0329228	-0.423178	0.211329	-0.574219	0.188237	-0.0180727	-0.204665	0.0322117	0.0303673	5.25091	-0.54411	4.6967	1.36976	1.59942	-1.06792	-1.00785	-2.24947	2.31291	1.23371
2.07	-0.00782524	0.0395845	0.0443371	-0.298099	1.24285	-0.658385	0.180467	-0.169664	-0.308658	0.172385	-0.632917	0.153868	-0.0180727	0.126242	-0.0338331	-0.419462	0.228719	-0.562767	0.190466	-0.0180727	-0.210858	0.0308503	0.0291574	5.26056	-0.504045	4.7434	1.40723	1.60672	-1.03655	-0.95666	-2.21587	2.36773	1.22845
2.08	-0.00593884	0.0421959	0.0407113	-0.300318	1.21813	-0.658306	0.187458	-0.173636	-0.288073	0.198531	-0.596624	0.151648	-0.0180727	0.130593	-0.0356992	-0.415751	0.25546	-0.529777	0.191487	-0.0180727	-0.218839	0.0288623	0.0287848	5.27566	-0.462756	4.79359	1.442	1.61453	-0.997772	-0.902286	-2.16691	2.42221	1.22898
2.09	-0.00402874	0.0449583	0.036338	-0.303023	1.19243	-0.658015	0.199503	-0.177427	-0.2626	0.238393	-0.533201	0.147423	-0.0180727	0.138518	-0.0385776	-0.410984	0.293844	-0.470041	0.191626	-0.0180727	-0.228688	0.0261473	0.0291709	5.29619	-0.42128	4.84714	1.47232	1.6233	-0.953568	-0.844955	-2.10269	2.47442	1.23806
2.1	-0.00230101	0.047839	0.0312488	-0.306358	1.16568	-0.657525	0.218013	-0.180926	-0.232906	0.293646	-0.440677	0.140844	-0.0180727	0.151207	-0.0424493	-0.404269	0.345426	-0.381125	0.191139	-0.0180727	-0.240425	0.0226347	0.0300462	5.32222	-0.38072	4.90399	1.49667	1.63346	-0.905812	-0.784947	-2.02339	2.52238	1.25751
2.11	-0.000908812	0.0508028	0.0255983	-0.310651	1.13826	-0.65684	0.244029	-0.184065	-0.200225	0.364532	-0.321331	0.131875	-0.0180727	0.169641	-0.0472032	-0.395135	0.410546	-0.264703	0.190012	-0.0180727	-0.254034	0.0183082	0.0309924	5.35392	-0.342153	4.96408	1.5138	1.64531	-0.856047	-0.722684	-1.92938	2.5642	1.28779
2.12	0.000118041	0.0538237	0.0196604	-0.316263	1.11082	-0.656011	0.277959	-0.186856	-0.166208	0.449599	-0.182036	0.120822	-0.0180727	0.194351	-0.0526141	-0.383625	0.488061	-0.126985	0.187849	-0.0180727	-0.269503	0.01322	0.0315178	5.39149	-0.306519	5.02729	1.52289	1.6588	-0.805306	-0.658821	-1.82142	2.59831	1.32779
2.13	0.000914849	0.0568899	0.0138034	-0.322951	1.08347	-0.655167	0.319407	-0.189416	-0.132645	0.545849	-0.0331972	0.108302	-0.0180727	0.225272	-0.0583359	-0.370172	0.575472	0.0222506	0.183943	-0.0180727	-0.286839	0.00749801	0.0311552	5.43505	-0.27454	5.09343	1.52366	1.67343	-0.754019	-0.594309	-1.70078	2.62354	1.37498
2.14	0.00176355	0.0599865	0.008446	-0.330252	1.05635	-0.654449	0.367158	-0.191938	-0.101146	0.649247	0.113457	0.0951739	-0.0180727	0.261711	-0.0639345	-0.355356	0.669399	0.171717	0.177535	-0.0180727	-0.306015	0.00135833	0.029567	5.48447	-0.246665	5.16221	1.51642	1.68829	-0.702063	-0.530412	-1.56951	2.63911	1.42621
2.15	0.00302709	0.0630604	0.00399923	-0.338058	1.03	-0.653918	0.419306	-0.19461	-0.0728927	0.755376	0.247328	0.0823981	-0.0180727	0.302453	-0.0689544	-0.339673	0.766184	0.310897	0.168066	-0.0180727	-0.326885	-0.00488443	0.026634	5.53925	-0.223058	5.23324	1.50219	1.70232	-0.648941	-0.468664	-1.43055	2.64434	1.47882
